<?xml version="1.0" standalone="no"?><!DOCTYPE svg PUBLIC "-//W3C//DTD SVG 1.1//EN" "http://www.w3.org/Graphics/SVG/1.1/DTD/svg11.dtd"><svg t="1585459151770" class="icon" viewBox="0 0 1024 1024" version="1.1" xmlns="http://www.w3.org/2000/svg" p-id="7683" xmlns:xlink="http://www.w3.org/1999/xlink" width="200" height="200"><defs><style type="text/css"></style></defs><path d="M713.472 579.328v404.736h84.992V837.12c135.936 2.048 204.8-4.096 224-120.064 6.144-34.048-6.144-71.936-20.992-92.928-45.056-60.672-179.968-45.824-288-44.8z m84.992 188.928V650.24c62.976-2.048 129.792-8.96 140.8 41.984 18.176 85.248-69.888 78.08-140.8 76.032z m-248.832-186.88c1.024 133.888 1.024 268.8 2.048 402.688h82.944V579.328c-27.904 1.024-56.064 1.024-84.992 2.048z m161.024-541.696c-131.072 130.816-261.888 260.608-393.728 391.68v-391.68H0c1.024 25.856 1.024 52.992 2.048 79.104h77.056v864.768c314.88-315.136 628.736-628.992 943.36-943.616l-311.808-0.256z" p-id="7684"></path></svg>