<?xml version="1.0" standalone="no"?><!DOCTYPE svg PUBLIC "-//W3C//DTD SVG 1.1//EN" "http://www.w3.org/Graphics/SVG/1.1/DTD/svg11.dtd"><svg t="1585458182206" class="icon" viewBox="0 0 1024 1024" version="1.1" xmlns="http://www.w3.org/2000/svg" p-id="3575" xmlns:xlink="http://www.w3.org/1999/xlink" width="200" height="200"><defs><style type="text/css"></style></defs><path d="M824.8715 493.586c-4.0815-16.137-12.438-32.121-25.0065-47.9835-12.5685-15.8265-30.8925-30.258-55.0305-43.299-24.1065-13.0365-56.4435-21.7485-96.9795-26.082-29.25-3.1365-76.05-3.1365-104.787 0V330.56c39.501-3.7125 98.262-8.2395 140.562-13.5 42.336-5.301 86.085-12.267 131.247-20.97a146.106 146.106 0 0 1-6.948-18.6165c-2.025-5.6115-4.239-11.8395-6.516-18.612a2905.758 2905.758 0 0 0-7.371-21.474c-5.625-16.7535-12.3075-36.297-19.9845-58.698-47.709 16.794-94.797 31.0725-141.2505 42.8355a1536.9075 1536.9075 0 0 1-140.85 28.908 1581.9435 1581.9435 0 0 1-144.324 15.8265c-48.762 3.096-103.374-6.813-155.709-6.813l17.937 85.059c28.2195 0 62.3565-3.447 102.3795-3.753s84.924-2.0115 134.685-5.148v69.4575C416.6495 413.099 389.195 422 364.5395 431.5985c-24.624 9.639-63.675 17.874-79.074 24.723v-42.606H189.872v310.4145h95.661v-194.9085c21.0195-10.5615 62.775-20.664 87.1425-30.258a1833.894 1833.894 0 0 1 74.286-27.5175V838.25h96.111V454.778c11.286-2.4795 39.726-4.3335 49.7295-5.6115 10.026-1.2375 19.8945-2.475 29.6325-3.753 27.2295-1.8585 48.123 1.8585 62.748 11.1825 14.6205 9.324 24.525 19.269 29.637 29.835 2.5695 4.986 4.239 11.3355 4.9815 19.1205 0.7695 7.74 1.1565 14.076 1.1565 19.071 0 3.7485 0.513-3.402 1.539 14.5845 1.0305 18.036 0.261 44.739-2.2815 80.1405-1.026 13.0365-3.2445 23.7555-6.5565 32.1255-3.339 8.388-7.425 14.616-12.3075 18.657-4.887 4.014-10.125 6.6465-15.786 7.8885-5.625 1.233-11.511 1.233-17.712 0-13.8555-2.484-29.7675-9.2835-47.7045-20.475l-4.626 56.8485c8.226 5.6025 17.9685 11.178 29.25 16.7805 9.738 4.9635 21.411 9.9495 35.037 14.9085 13.563 4.986 28.8315 9.0135 45.774 12.1095 19.476 3.7125 35.775 2.781 48.8925-2.79 13.113-5.571 23.5845-14.121 31.5675-25.605 7.9335-11.502 13.977-25.308 18.0945-41.4855a317.718 317.718 0 0 0 8.4825-50.31 443.565 443.565 0 0 0 1.548-51.7365c-0.549-17.055-1.0305-32.427-1.548-46.0845-1.053-10.5705-3.6315-30.42-7.749-46.593z" p-id="3576"></path><path d="M833.4305 62H190.574C119.564 62 62 119.5595 62 190.5695v642.852C62 904.4315 119.564 962 190.574 962h642.8565C904.436 962 962 904.436 962 833.426V190.5695C962 119.5595 904.436 62 833.4305 62z m64.287 771.426c0 35.4735-28.818 64.287-64.287 64.287H190.574c-35.4375 0-64.287-28.8135-64.287-64.287V190.5695c0-35.4375 28.845-64.287 64.287-64.287h642.8565c35.469 0 64.287 28.8495 64.287 64.287v642.8565z" p-id="3577"></path></svg>