<?xml version="1.0" standalone="no"?><!DOCTYPE svg PUBLIC "-//W3C//DTD SVG 1.1//EN" "http://www.w3.org/Graphics/SVG/1.1/DTD/svg11.dtd"><svg t="1584197309755" class="icon" viewBox="0 0 1024 1024" version="1.1" xmlns="http://www.w3.org/2000/svg" p-id="2049" xmlns:xlink="http://www.w3.org/1999/xlink" width="200" height="200"><defs><style type="text/css"></style></defs><path d="M896 704c-35.328 0-64-28.672-64-64V384c0-155.648-110.592-284.672-257.024-313.344 0-2.048 1.024-4.096 1.024-6.656C576 28.672 547.328 0 512 0S448 28.672 448 64c0 2.56 1.024 4.096 1.024 6.656-146.432 29.696-257.024 158.72-257.024 313.344v256c0 35.328-28.672 64-64 64s-64 28.672-64 64 28.672 64 64 64h768c35.328 0 64-28.672 64-64s-28.672-64-64-64zM512 1024c70.656 0 128-57.344 128-128H384c0 70.656 57.344 128 128 128z" p-id="2050" fill="#8a8a8a"></path></svg>