<?xml version="1.0" standalone="no"?><!DOCTYPE svg PUBLIC "-//W3C//DTD SVG 1.1//EN" "http://www.w3.org/Graphics/SVG/1.1/DTD/svg11.dtd"><svg t="1586139695329" class="icon" viewBox="0 0 1434 1024" version="1.1" xmlns="http://www.w3.org/2000/svg" p-id="12099" xmlns:xlink="http://www.w3.org/1999/xlink" width="280.078125" height="200"><defs><style type="text/css"></style></defs><path d="M788.111359 588.177954c-20.070139 15.3598-47.205786 29.900411-73.112649 25.39487-25.804465 3.276757-50.175348-12.28784-70.143088-25.39487l-620.740731-481.273744c-31.743587-24.575681-31.743587-64.203965 0-88.574848a99.019513 99.019513 0 0 1 114.686509 0l577.528492 457.926847L1295.496763 18.329362a99.019513 99.019513 0 0 1 114.686509 0c31.743587 24.370883 31.743587 64.101567 0 88.47245l-622.071913 481.273743z" p-id="12100"></path><path d="M788.111359 997.772629c-20.070139 15.3598-47.205786 29.900411-73.112649 25.39487-25.804465 3.276757-50.175348-12.28784-70.143088-25.39487l-620.740731-481.273743c-31.743587-24.575681-31.743587-64.203965 0-88.574849a99.019513 99.019513 0 0 1 114.686509 0l577.528492 457.926847 579.166871-457.926847a99.019513 99.019513 0 0 1 114.686509 0c31.743587 24.370883 31.743587 64.101567 0 88.47245l-622.071913 481.273743z" p-id="12101"></path></svg>