<?xml version="1.0" standalone="no"?><!DOCTYPE svg PUBLIC "-//W3C//DTD SVG 1.1//EN" "http://www.w3.org/Graphics/SVG/1.1/DTD/svg11.dtd"><svg t="1565873268843" class="icon" viewBox="0 0 1024 1024" version="1.1" xmlns="http://www.w3.org/2000/svg" p-id="45768" xmlns:xlink="http://www.w3.org/1999/xlink" width="200" height="200"><defs><style type="text/css"></style></defs><path d="M872.3456 874.7008C772.7104 974.2336 652.5952 1024 512 1024c-140.5952 0-261.12-50.0736-361.472-150.528C50.176 773.12 0 652.6976 0 512c0-140.5952 50.176-261.12 150.528-361.472C250.88 50.176 371.4048 0 512 0c140.5952 0 261.12 50.176 361.472 150.528C973.824 250.88 1024 371.4048 1024 512 1024 652.6976 973.4144 773.632 872.3456 874.7008zM846.2336 177.7664C752.9472 84.5824 641.536 37.888 512 37.888c-129.536 0-240.9472 46.592-334.2336 139.8784C84.5824 271.0528 37.888 382.464 37.888 512c0 129.536 46.592 240.9472 139.8784 334.2336C271.0528 939.52 382.464 986.112 512 986.112c129.536 0 240.9472-46.592 334.2336-139.8784C939.4176 752.9472 986.112 641.536 986.112 512 986.112 382.464 939.4176 271.0528 846.2336 177.7664zM395.8784 433.7664C381.6448 448 363.4176 455.0656 341.2992 455.0656c-22.1184 0-40.2432-7.0656-54.4768-21.2992C272.5888 419.5328 265.5232 401.408 265.5232 379.2896c0-22.1184 7.0656-40.2432 21.2992-54.4768C301.056 310.4768 319.1808 303.4112 341.2992 303.4112c22.1184 0 40.2432 7.168 54.4768 21.2992C410.112 338.944 417.1776 357.1712 417.1776 379.2896 417.1776 401.408 410.112 419.5328 395.8784 433.7664zM296.3456 834.3552 291.5328 834.3552C278.9376 828.1088 274.944 819.4048 279.6544 808.3456c17.408-48.9472 47.4112-88.4736 90.112-118.4768C412.4672 659.7632 459.8784 644.7104 512 644.7104c52.1216 0 99.5328 15.0528 142.2336 45.056 42.7008 30.0032 72.704 69.5296 90.112 118.4768C750.592 820.9408 746.7008 828.8256 732.4672 832 719.7696 838.3488 711.8848 835.1744 708.7104 822.4768 694.4768 781.4144 669.2864 747.8272 632.9344 721.8176 596.5824 695.7056 556.2368 682.7008 512 682.7008c-44.2368 0-84.5824 13.0048-120.9344 39.1168C354.7136 747.8272 329.5232 781.4144 315.2896 822.4768 312.1152 830.464 305.7664 834.3552 296.3456 834.3552zM379.2896 379.2896c0-25.1904-12.5952-37.888-37.888-37.888s-37.888 12.6976-37.888 37.888c0 25.2928 12.5952 37.888 37.888 37.888S379.2896 404.5824 379.2896 379.2896zM737.1776 433.7664C722.944 448 704.8192 455.0656 682.7008 455.0656c-22.1184 0-40.2432-7.0656-54.4768-21.2992C613.888 419.5328 606.8224 401.408 606.8224 379.2896c0-22.1184 7.0656-40.2432 21.2992-54.4768 14.2336-14.2336 32.3584-21.2992 54.4768-21.2992 22.1184 0 40.2432 7.168 54.4768 21.2992C751.4112 338.944 758.4768 357.1712 758.4768 379.2896 758.4768 401.408 751.4112 419.5328 737.1776 433.7664zM720.5888 379.2896c0-25.1904-12.5952-37.888-37.888-37.888-25.2928 0-37.888 12.6976-37.888 37.888 0 25.2928 12.5952 37.888 37.888 37.888C707.9936 417.1776 720.5888 404.5824 720.5888 379.2896z" p-id="45769"></path></svg>