<?xml version="1.0" standalone="no"?><!DOCTYPE svg PUBLIC "-//W3C//DTD SVG 1.1//EN" "http://www.w3.org/Graphics/SVG/1.1/DTD/svg11.dtd"><svg t="1565869846431" class="icon" viewBox="0 0 1699 1024" version="1.1" xmlns="http://www.w3.org/2000/svg" p-id="35509" xmlns:xlink="http://www.w3.org/1999/xlink" width="331.8359375" height="200"><defs><style type="text/css"></style></defs><path d="M1698.343405 511.725737c0 163.49531-350.168553 512.274263-849.172778 512.274263C362.866404 1024 0 680.96014 0 511.725737 0 342.514996 364.434544 0 849.170627 0 1352.098429 0 1698.459563 342.514996 1698.343405 511.725737L1698.343405 511.725737zM849.919204 93.440949c-226.001517 0-409.211514 187.404612-409.211514 418.562277 0 231.159817 183.207846 418.562277 409.211514 418.562277 226.070351 0 409.284651-187.404612 409.284651-418.562277S1075.989555 93.440949 849.919204 93.440949L849.919204 93.440949z" p-id="35510"></path><path d="M849.170627 244.782633c-143.922595 0-260.599556 119.318493-260.599556 266.521491 0 147.18794 116.676961 266.527944 260.599556 266.527944 143.924746 0 260.552232-119.340004 260.552232-266.527944C1109.722859 364.101126 993.095372 244.782633 849.170627 244.782633L849.170627 244.782633z" p-id="35511"></path></svg>