<?xml version="1.0" standalone="no"?><!DOCTYPE svg PUBLIC "-//W3C//DTD SVG 1.1//EN" "http://www.w3.org/Graphics/SVG/1.1/DTD/svg11.dtd"><svg t="1584267808944" class="icon" viewBox="0 0 1024 1024" version="1.1" xmlns="http://www.w3.org/2000/svg" p-id="2753" xmlns:xlink="http://www.w3.org/1999/xlink" width="200" height="200"><defs><style type="text/css"></style></defs><path d="M512 293.309217a125.551304 125.551304 0 0 0-125.729391 125.729392A125.551304 125.551304 0 0 0 512 544.723478a125.551304 125.551304 0 0 0 125.729391-125.684869A125.551304 125.551304 0 0 0 512 293.309217z m0 209.519305a84.23513 84.23513 0 0 1-83.789913-83.789913c0-45.946435 37.843478-83.834435 83.789913-83.834435s83.789913 37.843478 83.789913 83.834435c0 45.946435-37.353739 83.789913-83.789913 83.789913z m248.208696 191.176348c6.90087-55.296 6.90087-125.996522 6.900869-213.793392C767.109565 213.25913 567.02887 0 511.465739 0 455.902609 0 255.866435 211.122087 255.866435 480.211478c0 87.752348 0 157.96313 6.322087 213.793392H155.826087v150.661565a25.911652 25.911652 0 0 0 51.867826 0v-99.06087h64.556522c22.750609 86.149565 78.358261 122.301217 213.837913 126.575305v107.564521a25.911652 25.911652 0 0 0 51.867826 0V872.18087c133.87687-3.739826 189.974261-40.425739 213.25913-126.575305h65.090783v99.06087a25.911652 25.911652 0 1 0 51.867826 0v-150.661565h-107.965217zM469.704348 95.187478c18.832696-18.521043 32.857043-28.048696 40.425739-32.322782 7.568696 4.229565 21.548522 13.801739 40.96 32.322782 11.842783 11.130435 26.935652 28.137739 44.699826 50.398609l-3.205565-3.695304a702.553043 702.553043 0 0 1-164.374261 0c15.582609-20.168348 30.185739-36.062609 41.494261-46.703305z m225.54713 664.887652c-10.863304 20.034783-25.555478 32.233739-50.042435 41.182609-25.021217 9.527652-59.837217 14.781217-106.050782 15.849739V691.422609H485.821217v125.684869c-46.258087-1.602783-81.608348-6.856348-106.629565-15.849739-23.952696-8.94887-39.17913-21.103304-50.042435-40.648348-26.668522-48.573217-26.668522-143.62713-26.668521-275.144348v-6.322086c0-53.337043 9.260522-108.232348 27.202782-162.059131a597.837913 597.837913 0 0 1 65.26887-135.212522c3.294609-4.763826 6.010435-9.527652 9.260522-14.246956l-3.250087 5.253565a681.182609 681.182609 0 0 0 110.992695 7.92487c38.600348 0 75.597913-2.671304 110.413913-7.92487 2.181565 3.161043 4.36313 6.366609 6.544696 10.061913 27.737043 42.74087 49.508174 88.153043 65.26887 135.168 17.942261 53.871304 27.202783 108.232348 27.202782 161.035131 0.534261 134.144 0.534261 230.756174-26.134261 280.932173z" p-id="2754" fill="#8a8a8a"></path></svg>