<?xml version="1.0" standalone="no"?><!DOCTYPE svg PUBLIC "-//W3C//DTD SVG 1.1//EN" "http://www.w3.org/Graphics/SVG/1.1/DTD/svg11.dtd"><svg t="1584171543605" class="icon" viewBox="0 0 1024 1024" version="1.1" xmlns="http://www.w3.org/2000/svg" p-id="1761" xmlns:xlink="http://www.w3.org/1999/xlink" width="200" height="200"><defs><style type="text/css"></style></defs><path d="M694.458729 94.568729H285.285342c-1.439819 0-2.857274 0.135897-4.226564 0.426613-36.059112 1.489705-69.118172 21.225712-87.049676 52.272123-0.509183 0.88591-0.946117 1.816545-1.322844 2.762662-3.863599 9.710604-94.969538 238.958276-113.169396 306.865419-21.057132 78.562144 25.742993 159.6444 104.367064 180.710132 11.539191 3.101545 23.671856 4.532762 38.083803 4.532762l98.698961 0.387048c-12.242758 55.920695-14.301854 139.81034-14.301854 189.818662 0 58.124289 47.286945 105.397472 105.397472 105.397472 58.110527 0 105.395752-47.271463 105.395752-105.397472v-21.093256c0-105.820644 78.410765-193.661619 180.175146-208.536303a22.782506 22.782506 0 0 1-2.874477-11.071293V94.568729z m138.888306 0h-89.291115v497.072848c0 3.127348-0.64852 6.108478-1.797623 8.840177h91.088738c46.497367 0 84.302495-37.830932 84.302495-84.328299V178.886706c0-46.499087-37.803409-84.317977-84.302495-84.317977z" p-id="1762" fill="#8a8a8a"></path></svg>