<?xml version="1.0" standalone="no"?><!DOCTYPE svg PUBLIC "-//W3C//DTD SVG 1.1//EN" "http://www.w3.org/Graphics/SVG/1.1/DTD/svg11.dtd"><svg t="1585460201028" class="icon" viewBox="0 0 1024 1024" version="1.1" xmlns="http://www.w3.org/2000/svg" p-id="25905" xmlns:xlink="http://www.w3.org/1999/xlink" width="200" height="200"><defs><style type="text/css"></style></defs><path d="M555.463396 179.973978c-13.34289 27.235294-24.490787 44.271296-33.352619 51.077305-6.66684 4.581342-12.245905 6.816243-16.677845 6.816243-4.481058 0-10.008958 4.572132-16.675797 13.613042-11.157107 15.908318-7.824199 32.934087 9.998725 51.078329 22.206768 25.010627 41.127699 30.659277 56.706513 17.036002 2.196015 0 4.431939-1.11745 6.667863-3.402493 4.429893-2.235924 13.354146-7.924483 26.685779-17.026792 22.206768-15.858176 37.795814-20.439518 46.707788-13.632485 2.185782 4.580319 4.430916 6.816243 6.66684 6.816242 8.862855 2.285043 17.773805 17.036002 26.686802 44.271296 11.097756 29.53057 31.116695 44.271296 60.039421 44.271296 22.206768-6.816243 30.019711-28.364001 23.353894-64.699557 6.665817-20.439518 20.009729-32.884968 40.018436-37.46631 48.892547 6.807033 75.579349-6.80601 80.060407-40.85857 2.185782-34.050514-14.490016-51.077306-50.040696-51.077306-35.588543 0-76.716242 1.167592-123.412775 3.393284h-3.332908c-20.020986 2.295276-33.353642-1.107217-40.030715-10.209526-6.66684-4.520967-11.146874-9.052167-13.34289-13.623276-6.66684-2.234901-11.157107-7.92346-13.342889-17.026792-2.235924-11.337209-11.147898-18.142196-26.675546-20.429285-15.59007 0.001023-31.178093 17.017582-46.707788 51.079353z m-300.19813-20.429285c-4.491291 9.102309-11.158131 20.429285-20.019962 34.05256-26.686802 34.05256-50.02944 56.775074-70.03917 68.103074-6.677073 6.807033-14.492062 9.103332-23.353894 6.807033-6.67605-2.235924-14.491039-1.118474-23.352871 3.411703-17.824971 22.714328-15.578814 45.438888 6.66684 68.104097 22.204721 27.246551 47.804772 30.649044 76.726476 10.219759 6.66684-4.520967 18.863626-14.740726 36.68655-30.649044 22.205745-20.429285 36.696784-30.649044 43.3626-30.649044 17.774829 2.295276 33.363875 17.026792 46.696532 44.27232 15.538905 22.714328 34.45165 28.402887 56.707536 17.025768 17.773805-2.235924 23.352871-18.144242 16.687055-47.685045-6.677073-22.653953 4.430916-35.170011 33.352619-37.443797 28.872584 2.27481 45.550429-15.869433 50.040696-54.492079-4.490268-18.143219-27.844162-29.480428-70.060659-34.051537-8.901741 0-22.245653 1.167592-40.019459 3.403517H358.659101c-17.822924 0-30.019711-6.817266-36.68655-20.429285-6.66684-18.143219-18.922978-27.245528-36.686551-27.245528-11.160177-2.234901-21.168112 6.807033-30.020734 27.245528z m200.129017 170.269965c-11.148921 11.387351-22.255887 20.429285-33.353643 27.236317-82.295308 56.775074-155.678642 91.955318-220.150002 105.568361-24.490787 4.571109-41.177841 3.411703-50.039673-3.403516-2.235924-2.235924-5.568832-3.402493-9.999748-3.402493-33.352619 9.090029-44.511773 30.649044-33.352619 64.690348 11.096732 40.878013 36.686551 56.785308 76.716242 47.684022 93.393064-24.961508 190.129268-72.634274 290.189172-143.033647 8.862855-4.511757 22.214954-6.80601 40.039925-6.80601 20.009729 2.294252 35.538401-1.118474 46.686299-10.210549 2.196015-4.520967-7.813966-23.842011-30.020734-57.893548-13.332656-24.950252-31.157627-36.287461-53.362349-34.051537-8.911974 2.285043-16.676821 6.80601-23.35287 13.622252z m296.247144 208.153783c24.442692-2.236947 34.911114-8.752338 43.823088-42.813084 4.430916-29.472242-6.66684-48.78203-33.353642-57.885362-13.34289-4.5312-24.502044-3.403516-33.355689 3.403516-8.921183 4.580319-18.919908 4.580319-30.019711 0-35.81674-20.488637-103.530958-53.691853-113.252367-18.911721-11.157107 18.193361 20.159132 36.027541 66.855664 65.507969 0.001023-0.001023 23.174815 50.698682 99.302657 50.698682z m-392.984372-14.051017h-9.999749c-44.511773 4.569062-64.521502 19.308765-60.039421 44.270273-2.246157 27.245528 18.862603 40.860617 63.373353 40.860616 1.01819 0.717338 193.4632-2.336208 193.47241-3.403516h23.343661c15.538905 0 38.882566-1.109264 70.049402-3.403517 28.872584 0 43.363623-13.624299 43.363624-40.858569 0-27.245528-18.922978-40.878013-56.706513-40.878013-117.893061 2.294252-206.806089 3.412726-266.856767 3.412726zM208.557478 673.758104c0 4.569062 2.196015 9.092076 6.677073 13.610996 13.343913 13.623275 25.538653 34.05256 36.68655 61.298088 15.538905 31.816636 35.548634 42.035372 60.050678 30.649044 31.107485-13.623275 38.872333-38.573527 23.343661-74.921364-15.578814-34.05256-30.019711-59.001789-43.3626-74.91113-20.019962-18.143219-42.266639-21.545712-66.707284-10.218736-22.25691 15.909341-27.835975 34.05256-16.688078 54.493102z m-33.352619 129.400139c-40.029692 4.569062-60.039421 17.026792-60.039421 37.464263 2.184759 36.287461 21.107737 54.480822 56.706513 54.480822 104.489796-9.102309 235.678674-12.505825 393.602449-10.209526h256.83553c31.118741-4.590552 46.707788-21.617343 46.707788-51.087539-0.727571-33.743522-65.339124-29.869285-104.959493-29.652343-24.241101 0.180102-33.58184 50.699706-99.300611 50.699705-65.729004 0-98.533131-50.54007-124.134205-50.699705 86.687338 0.541329-360.669386-0.845251-365.41855-0.995677z" p-id="25906"></path><path d="M540.622386 626.690112l99.302657 101.416808c132.166135-166.287257 290.868647-232.225015 302.146504-240.838184 0.179079 0.400113 20.599154 26.567076 20.599154 26.567075C807.71963 669.404959 667.939073 797.278325 664.756591 829.504284L490.972593 702.758602l49.649793-76.06849z" p-id="25907"></path></svg>